<svg width="1600" height="900" viewBox="0 0 1600 900" fill="none" xmlns="http://www.w3.org/2000/svg">
<path d="M106.278 504.467C108.847 500.201 115.194 500.741 117.007 505.379L158.934 612.672C160.474 616.611 157.564 620.864 153.335 620.856L46.9156 620.653C42.2526 620.644 39.3815 615.552 41.7871 611.557L106.278 504.467Z" fill="#F07A6B"/>
<path d="M307.322 322H207.322C200.695 322 195.322 316.627 195.322 310V213.414C195.322 211.223 195.905 209.073 197.093 207.233C218.574 173.96 269.585 131.763 317.5 207.14C318.683 209.001 319.322 211.232 319.322 213.438V310C319.322 316.627 313.949 322 307.322 322Z" fill="#F9D56E"/>
<path d="M596.322 267.421C596.322 264.237 599.861 262.329 602.521 264.08L659.569 301.625L711.662 335.909C714.978 338.091 713.433 343.25 709.463 343.25H600.322C598.113 343.25 596.322 341.459 596.322 339.25V267.421Z" fill="#72A6E2"/>
<path d="M266.822 395H216.322C213.008 395 210.322 397.686 210.322 401V562C210.322 565.314 213.008 568 216.322 568H389.822C393.136 568 395.822 565.314 395.822 562V520.5C395.822 517.186 393.136 514.5 389.822 514.5H339.822C336.508 514.5 333.822 511.814 333.822 508.5V459.5C333.822 456.186 331.136 453.5 327.822 453.5H278.822C275.508 453.5 272.822 450.814 272.822 447.5V401C272.822 397.686 270.136 395 266.822 395Z" fill="#E29B94"/>
<path d="M73.322 440V329.563C73.322 325.138 77.948 322.235 81.9322 324.16L158.932 361.362C161.005 362.364 162.322 364.463 162.322 366.765V440C162.322 443.314 159.636 446 156.322 446H79.322C76.0083 446 73.322 443.314 73.322 440Z" fill="#72A6E2"/>
<path d="M611.322 463C559 463 516.157 503.59 512.566 554.999C512.296 558.856 515.456 562 519.322 562H703.322C707.188 562 710.348 558.856 710.078 554.999C706.487 503.59 663.644 463 611.322 463Z" fill="#F9D56E"/>
<path fill-rule="evenodd" clip-rule="evenodd" d="M642.322 575C642.322 571.134 645.456 568 649.322 568H794.322C798.188 568 801.322 571.134 801.322 575V767C801.322 770.866 798.188 774 794.322 774H764.891C761.025 774 757.891 770.866 757.891 767V682.5V682.001C757.891 682 757.891 682 757.89 682C757.89 682 757.89 682 757.89 681.999C757.692 654.892 741.455 633 721.454 633C701.453 633 685.216 654.892 685.018 681.999C685.018 682 685.018 682 685.017 682C685.017 682 685.016 682 685.016 682.001V682.5V767C685.016 770.866 681.882 774 678.016 774H649.322C645.456 774 642.322 770.866 642.322 767V575Z" fill="#E29B94"/>
<path fill-rule="evenodd" clip-rule="evenodd" d="M527.145 456C530.473 456 533.176 453.29 533.038 449.965C530.355 385.307 490.927 334 442.682 334C394.437 334 355.01 385.307 352.327 449.965C352.189 453.29 354.892 456 358.22 456H383.034C386.325 456 388.982 453.342 389.21 450.059C391.782 412.998 414.741 384 442.682 384C470.624 384 493.583 412.998 496.155 450.059C496.383 453.342 499.04 456 502.33 456H527.145Z" fill="#F07A6B"/>
<path d="M412.399 602.248C413.554 599.096 416.554 597 419.911 597H483.956C487.906 597 491.264 599.882 491.863 603.786L504.908 688.786C505.652 693.632 501.902 698 497.001 698H388.773C383.213 698 379.348 692.469 381.261 687.248L412.399 602.248Z" fill="#72A6E2"/>
<path fill-rule="evenodd" clip-rule="evenodd" d="M303.322 647C303.322 643.686 300.636 641 297.322 641H144.322C141.008 641 138.322 643.686 138.322 647V727C138.322 730.314 141.008 733 144.322 733H170.154C174.176 733 177.059 729.098 176.608 725.102C176.419 723.427 176.322 721.725 176.322 720C176.322 695.147 196.469 675 221.322 675C246.175 675 266.322 695.147 266.322 720C266.322 721.725 266.225 723.427 266.036 725.102C265.585 729.098 268.467 733 272.49 733H297.322C300.636 733 303.322 730.314 303.322 727V647Z" fill="#F9D56E"/>
<path d="M409.322 755.5C409.322 787.256 383.578 813 351.822 813C320.066 813 294.322 787.256 294.322 755.5C294.322 723.744 320.066 698 351.822 698C383.578 698 409.322 723.744 409.322 755.5Z" fill="#F07A6B"/>
</svg>
