<svg width="1600" height="900" viewBox="0 0 1600 900" fill="none" xmlns="http://www.w3.org/2000/svg">
<path d="M558 500C558 592.232 483.232 667 391 667C298.768 667 224 592.232 224 500C224 407.768 298.768 333 391 333C483.232 333 558 407.768 558 500Z" fill="#F9D56E"/>
<path fill-rule="evenodd" clip-rule="evenodd" d="M365 613.239C365 609.241 362.232 606 358.818 606H201.182C197.768 606 195 609.241 195 613.239V709.761C195 713.759 197.768 717 201.182 717H227.797C231.941 717 234.911 712.292 234.446 707.47C234.252 705.45 234.152 703.396 234.152 701.315C234.152 671.33 254.909 647.022 280.515 647.022C306.121 647.022 326.879 671.33 326.879 701.315C326.879 703.396 326.779 705.45 326.584 707.47C326.119 712.292 329.089 717 333.233 717H358.818C362.232 717 365 713.759 365 709.761V613.239Z" fill="#F07A6B"/>
<path d="M571.054 324.378C575.842 325.251 578.137 328.927 575.072 330.817L509.348 371.356L449.334 408.374C445.513 410.73 438.006 407.94 438.65 404.403L456.367 307.165C456.726 305.196 459.71 304.092 463.032 304.697L571.054 324.378Z" fill="#E29B94"/>
</svg>
