<svg width="1600" height="900" viewBox="0 0 1600 900" fill="none" xmlns="http://www.w3.org/2000/svg">
<g clip-path="url(#clip0)">
<path d="M178.388 740H131.563C128.491 740 126 742.484 126 745.549V894.451C126 897.516 128.491 900 131.563 900H292.437C295.509 900 298 897.516 298 894.451V856.069C298 853.005 295.509 850.52 292.437 850.52H246.075C243.003 850.52 240.512 848.036 240.512 844.971V799.653C240.512 796.588 238.021 794.104 234.949 794.104H189.515C186.442 794.104 183.951 791.62 183.951 788.555V745.549C183.951 742.484 181.461 740 178.388 740Z" fill="#E29B94"/>
<path fill-rule="evenodd" clip-rule="evenodd" d="M1546 7.8913C1546 3.53306 1542.45 0 1538.07 0H1335.93C1331.55 0 1328 3.53306 1328 7.8913V113.109C1328 117.467 1331.55 121 1335.93 121H1370.06C1375.37 121 1379.18 115.868 1378.58 110.612C1378.33 108.41 1378.21 106.171 1378.21 103.902C1378.21 71.2153 1404.82 44.7174 1437.66 44.7174C1470.5 44.7174 1497.12 71.2153 1497.12 103.902C1497.12 106.171 1496.99 108.41 1496.74 110.612C1496.14 115.868 1499.95 121 1505.26 121H1538.07C1542.45 121 1546 117.467 1546 113.109V7.8913Z" fill="#F07A6B"/>
<path fill-rule="evenodd" clip-rule="evenodd" d="M1655.62 893C1659.79 893 1663.17 889.601 1662.99 885.431C1659.64 804.344 1610.33 740 1550 740C1489.67 740 1440.36 804.344 1437.01 885.431C1436.83 889.601 1440.21 893 1444.38 893H1475.41C1479.52 893 1482.85 889.666 1483.13 885.549C1486.35 839.071 1515.06 802.705 1550 802.705C1584.94 802.705 1613.65 839.071 1616.87 885.549C1617.15 889.666 1620.48 893 1624.59 893H1655.62Z" fill="#F9D56E"/>
<path d="M165.17 492.266C169.537 497.022 168.371 503.344 163.129 503.339L50.6806 503.225L-51.9994 503.121C-58.5359 503.115 -63.96 493.893 -59.7182 489.998L56.8981 382.924C59.2585 380.757 63.6282 381.675 66.658 384.975L165.17 492.266Z" fill="#72A6E2"/>
</g>
<defs>
<clipPath id="clip0">
<rect width="1600" height="900" fill="white"/>
</clipPath>
</defs>
</svg>
