<svg width="1600" height="900" viewBox="0 0 1600 900" fill="none" xmlns="http://www.w3.org/2000/svg">
<path d="M911 676.252V809.739C911 815.087 916.562 818.595 921.352 816.269L1013.92 771.302C1016.42 770.092 1018 767.555 1018 764.772V676.252C1018 672.247 1014.77 669 1010.79 669H918.213C914.23 669 911 672.247 911 676.252Z" fill="#F9D56E"/>
<path d="M913 112.868C913 108.999 916.082 106.682 918.397 108.808L968.069 154.426L1013.43 196.08C1016.31 198.732 1014.97 205 1011.51 205H916.483C914.559 205 913 202.824 913 200.14V112.868Z" fill="#F07A6B"/>
<path d="M1022 543C1022 575.033 996.033 601 964 601C931.967 601 906 575.033 906 543C906 510.967 931.967 485 964 485C996.033 485 1022 510.967 1022 543Z" fill="#E29B94"/>
<path d="M1010.97 425H919.032C912.939 425 908 420.106 908 414.07V326.096C908 324.101 908.536 322.143 909.628 320.467C929.377 290.161 976.274 251.727 1020.33 320.382C1021.41 322.078 1022 324.109 1022 326.118V414.07C1022 420.106 1017.06 425 1010.97 425Z" fill="#72A6E2"/>
</svg>
