<svg width="1600" height="900" viewBox="0 0 1600 900" fill="none" xmlns="http://www.w3.org/2000/svg">
<path d="M1061.5 529.915C1065.87 534.671 1064.71 540.993 1059.46 540.988L947.016 540.874L844.336 540.77C837.799 540.764 832.375 531.542 836.617 527.647L953.233 420.573C955.593 418.406 959.963 419.324 962.993 422.624L1061.5 529.915Z" fill="#72A6E2"/>
<path d="M318.388 393H271.563C268.491 393 266 395.484 266 398.549V547.451C266 550.516 268.491 553 271.563 553H432.437C435.509 553 438 550.516 438 547.451V509.069C438 506.005 435.509 503.52 432.437 503.52H386.075C383.003 503.52 380.512 501.036 380.512 497.971V452.653C380.512 449.588 378.021 447.104 374.949 447.104H329.515C326.442 447.104 323.951 444.62 323.951 441.555V398.549C323.951 395.484 321.461 393 318.388 393Z" fill="#E29B94"/>
<path fill-rule="evenodd" clip-rule="evenodd" d="M1353.62 546C1357.79 546 1361.17 542.601 1360.99 538.431C1357.64 457.344 1308.33 393 1248 393C1187.67 393 1138.36 457.344 1135.01 538.431C1134.83 542.601 1138.21 546 1142.38 546H1173.41C1177.52 546 1180.85 542.666 1181.13 538.549C1184.35 492.071 1213.06 455.705 1248 455.705C1282.94 455.705 1311.65 492.071 1314.87 538.549C1315.15 542.666 1318.48 546 1322.59 546H1353.62Z" fill="#F07A6B"/>
<path fill-rule="evenodd" clip-rule="evenodd" d="M760 436.891C760 432.533 756.451 429 752.073 429H549.927C545.549 429 542 432.533 542 436.891V542.109C542 546.467 545.549 550 549.927 550H584.057C589.371 550 593.18 544.868 592.584 539.612C592.334 537.41 592.206 535.171 592.206 532.902C592.206 500.215 618.825 473.717 651.661 473.717C684.496 473.717 711.115 500.215 711.115 532.902C711.115 535.171 710.987 537.41 710.737 539.612C710.141 544.868 713.95 550 719.264 550H752.073C756.451 550 760 546.467 760 542.109V436.891Z" fill="#F9D56E"/>
</svg>
