<svg width="1600" height="900" viewBox="0 0 1600 900" fill="none" xmlns="http://www.w3.org/2000/svg">
<g clip-path="url(#clip0)">
<path d="M1604.81 942H1378.19C1363.17 942 1351 929.818 1351 914.79V695.778C1351 690.812 1352.32 685.937 1355.01 681.765C1403.69 606.318 1519.29 510.634 1627.87 681.553C1630.55 685.774 1632 690.832 1632 695.833V914.79C1632 929.818 1619.83 942 1604.81 942Z" fill="#F9D56E"/>
<path d="M1372.76 745.293C1367.93 732.201 1350.51 731.062 1343.66 742.822L1276.26 858.604C1270.3 868.842 1276.76 883.46 1290.19 883.386L1400.04 882.784C1411.86 882.719 1418.98 870.71 1415.21 860.472L1372.76 745.293Z" stroke="#F07A6B" stroke-width="20" stroke-linejoin="round"/>
<path d="M499 53.5C499 106.795 455.795 150 402.5 150C349.205 150 306 106.795 306 53.5C306 0.204524 349.205 -43 402.5 -43C455.795 -43 499 0.204524 499 53.5Z" fill="#F07A6B"/>
<path d="M62.3342 538H-22.876C-28.4673 538 -33 542.534 -33 548.127V819.873C-33 825.466 -28.4673 830 -22.876 830H269.876C275.467 830 280 825.466 280 819.873V749.827C280 744.234 275.467 739.699 269.876 739.699H185.509C179.918 739.699 175.385 735.165 175.385 729.572V646.867C175.385 641.274 170.853 636.74 165.261 636.74H82.5822C76.9909 636.74 72.4582 632.206 72.4582 626.613V548.127C72.4582 542.534 67.9256 538 62.3342 538Z" fill="#E29B94"/>
<path d="M344.703 820.391C346.116 816.552 349.786 814 353.894 814H432.251C437.083 814 441.192 817.51 441.925 822.265L457.885 925.78C458.794 931.68 454.207 937 448.21 937H315.796C308.994 937 304.266 930.264 306.606 923.906L344.703 820.391Z" fill="#72A6E2"/>
<path fill-rule="evenodd" clip-rule="evenodd" d="M587 98.4783C587 95.4527 584.542 93 581.509 93H441.491C438.458 93 436 95.4527 436 98.4783V171.522C436 174.547 438.458 177 441.491 177H465.131C468.812 177 471.45 173.438 471.037 169.788C470.865 168.26 470.776 166.705 470.776 165.13C470.776 142.439 489.213 124.043 511.958 124.043C534.702 124.043 553.139 142.439 553.139 165.13C553.139 166.705 553.051 168.26 552.878 169.788C552.465 173.438 555.103 177 558.784 177H581.509C584.542 177 587 174.547 587 171.522V98.4783Z" fill="#F9D56E"/>
<path fill-rule="evenodd" clip-rule="evenodd" d="M1467 230C1463.13 230 1460 226.866 1460 223L1460 78C1460 74.134 1463.13 71 1467 71L1659 71C1662.87 71 1666 74.134 1666 78L1666 107.431C1666 111.297 1662.87 114.431 1659 114.431L1574.5 114.431L1574 114.431C1574 114.431 1574 114.431 1574 114.431C1574 114.432 1574 114.432 1574 114.432C1546.89 114.63 1525 130.867 1525 150.868C1525 170.869 1546.89 187.106 1574 187.304C1574 187.304 1574 187.304 1574 187.305C1574 187.305 1574 187.306 1574 187.306L1574.5 187.306L1659 187.306C1662.87 187.306 1666 190.44 1666 194.306L1666 223C1666 226.866 1662.87 230 1659 230L1467 230Z" fill="#E29B94"/>
</g>
<defs>
<clipPath id="clip0">
<rect width="1600" height="900" fill="white"/>
</clipPath>
</defs>
</svg>
