<svg width="1600" height="900" viewBox="0 0 1600 900" fill="none" xmlns="http://www.w3.org/2000/svg">
<g clip-path="url(#clip0)">
<path d="M1066.5 93C1006.91 93 958.109 158.19 954.018 240.756C953.711 246.95 957.31 252 961.714 252H1171.29C1175.69 252 1179.29 246.95 1178.98 240.756C1174.89 158.19 1126.09 93 1066.5 93Z" fill="#F9D56E"/>
<path d="M1488.21 421.46L1500.89 426.106L1488.21 421.46L1440.09 552.747C1433.9 569.631 1446.41 587.5 1464.37 587.5H1631.63C1647.47 587.5 1659.6 573.389 1657.2 557.72L1637.04 426.433C1635.1 413.81 1624.24 404.5 1611.47 404.5H1512.5C1501.65 404.5 1491.95 411.269 1488.21 421.46Z" stroke="#F07A6B" stroke-width="27" stroke-linejoin="round"/>
<path fill-rule="evenodd" clip-rule="evenodd" d="M481 743.478C481 737.139 476.621 732 471.218 732H221.782C216.379 732 212 737.139 212 743.478V896.522C212 902.861 216.379 908 221.782 908H263.896C270.454 908 275.153 900.536 274.418 892.89C274.11 889.687 273.952 886.43 273.952 883.13C273.952 835.586 306.798 797.043 347.315 797.043C387.833 797.043 420.679 835.586 420.679 883.13C420.679 886.43 420.521 889.687 420.213 892.89C419.477 900.536 424.177 908 430.734 908H471.218C476.621 908 481 902.861 481 896.522V743.478Z" fill="#72A6E2"/>
<path d="M109 381.5C109 423.75 74.7498 458 32.5 458C-9.74978 458 -44 423.75 -44 381.5C-44 339.25 -9.74978 305 32.5 305C74.7498 305 109 339.25 109 381.5Z" fill="#E29B94"/>
<path d="M55.4783 416.069C54.0189 411.309 58.6591 406.945 63.3216 408.693L171.181 449.141C175.141 450.626 176.363 455.632 173.533 458.775L102.311 537.847C99.1898 541.312 93.4825 540.048 92.1159 535.59L55.4783 416.069Z" fill="#F9D56E"/>
</g>
<defs>
<clipPath id="clip0">
<rect width="1600" height="900" fill="white"/>
</clipPath>
</defs>
</svg>
