<svg width="1600" height="900" viewBox="0 0 1600 900" fill="none" xmlns="http://www.w3.org/2000/svg">
<g clip-path="url(#clip0)">
<path d="M178.388 740H131.563C128.491 740 126 742.484 126 745.549V894.451C126 897.516 128.491 900 131.563 900H292.437C295.509 900 298 897.516 298 894.451V856.069C298 853.005 295.509 850.52 292.437 850.52H246.075C243.003 850.52 240.512 848.036 240.512 844.971V799.653C240.512 796.588 238.021 794.104 234.949 794.104H189.515C186.442 794.104 183.951 791.62 183.951 788.555V745.549C183.951 742.484 181.461 740 178.388 740Z" fill="#E29B94"/>
<path fill-rule="evenodd" clip-rule="evenodd" d="M1311 259.891C1311 255.533 1307.45 252 1303.07 252H1100.93C1096.55 252 1093 255.533 1093 259.891V365.109C1093 369.467 1096.55 373 1100.93 373H1135.06C1140.37 373 1144.18 367.868 1143.58 362.612C1143.33 360.41 1143.21 358.171 1143.21 355.902C1143.21 323.215 1169.82 296.717 1202.66 296.717C1235.5 296.717 1262.12 323.215 1262.12 355.902C1262.12 358.171 1261.99 360.41 1261.74 362.612C1261.14 367.868 1264.95 373 1270.26 373H1303.07C1307.45 373 1311 369.467 1311 365.109V259.891Z" fill="#F07A6B"/>
<path fill-rule="evenodd" clip-rule="evenodd" d="M1655.62 893C1659.79 893 1663.17 889.601 1662.99 885.431C1659.64 804.344 1610.33 740 1550 740C1489.67 740 1440.36 804.344 1437.01 885.431C1436.83 889.601 1440.21 893 1444.38 893H1475.41C1479.52 893 1482.85 889.666 1483.13 885.549C1486.35 839.071 1515.06 802.705 1550 802.705C1584.94 802.705 1613.65 839.071 1616.87 885.549C1617.15 889.666 1620.48 893 1624.59 893H1655.62Z" fill="#F9D56E"/>
<path d="M165.17 492.266C169.537 497.022 168.371 503.344 163.129 503.339L50.6806 503.225L-51.9994 503.121C-58.5359 503.115 -63.96 493.893 -59.7182 489.998L56.8981 382.924C59.2585 380.757 63.6282 381.675 66.658 384.975L165.17 492.266Z" fill="#72A6E2"/>
</g>
<defs>
<clipPath id="clip0">
<rect width="1600" height="900" fill="white"/>
</clipPath>
</defs>
</svg>
