<svg width="1600" height="900" viewBox="0 0 1600 900" fill="none" xmlns="http://www.w3.org/2000/svg">
<g clip-path="url(#clip0)">
<path d="M1257.64 161.378C1254.75 157.925 1256.83 152.653 1261.29 152.144L1357.01 141.225L1444.41 131.254C1449.97 130.619 1453 137.613 1448.71 141.206L1330.93 239.991C1328.55 241.991 1324.99 241.67 1322.98 239.274L1257.64 161.378Z" fill="#72A6E2"/>
<path d="M320.5 607C265.673 607 220.78 666.86 217.017 742.675C216.734 748.363 220.045 753 224.096 753H416.904C420.955 753 424.266 748.363 423.983 742.675C420.22 666.86 375.327 607 320.5 607Z" fill="#F9D56E"/>
<path fill-rule="evenodd" clip-rule="evenodd" d="M1354 672.937C1354 668.001 1358 664 1362.94 664H1548.06C1553 664 1557 668.001 1557 672.937V918.063C1557 922.999 1553 927 1548.06 927H1510.49C1505.55 927 1501.55 922.999 1501.55 918.063V810.182V809.545C1501.55 809.544 1501.55 809.544 1501.55 809.544C1501.55 809.544 1501.55 809.543 1501.55 809.543C1501.3 774.935 1480.57 746.985 1455.03 746.985C1429.49 746.985 1408.76 774.935 1408.51 809.543C1408.51 809.543 1408.51 809.544 1408.51 809.544C1408.51 809.544 1408.51 809.544 1408.51 809.545V810.182V918.063C1408.51 922.999 1404.51 927 1399.57 927H1362.94C1358 927 1354 922.999 1354 918.063V672.937Z" fill="#E29B94"/>
<path fill-rule="evenodd" clip-rule="evenodd" d="M59.8977 -1.52835e-05C56.5703 -1.55744e-05 53.8672 2.71043 54.0051 6.03501C56.6876 70.6926 96.1154 122 144.36 122C192.605 122 232.033 70.6927 234.716 6.03503C234.854 2.71045 232.151 -2.24698e-07 228.823 -5.15593e-07L204.009 -2.68497e-06C200.718 -2.97264e-06 198.061 2.6583 197.833 5.94099C195.261 43.0022 172.302 72 144.36 72C116.419 72 93.4602 43.0021 90.8882 5.94098C90.6604 2.65829 88.003 -1.28265e-05 84.7125 -1.31142e-05L59.8977 -1.52835e-05Z" fill="#F07A6B"/>
</g>
<defs>
<clipPath id="clip0">
<rect width="1600" height="900" fill="white"/>
</clipPath>
</defs>
</svg>
