<svg width="1600" height="900" viewBox="0 0 1600 900" fill="none" xmlns="http://www.w3.org/2000/svg">
<g clip-path="url(#clip0)">
<path d="M1527 744.354C1529.13 746.678 1528.56 749.767 1526 749.765L1471.04 749.709L1420.86 749.658C1417.67 749.655 1415.02 745.149 1417.09 743.245L1474.08 690.918C1475.24 689.859 1477.37 690.307 1478.85 691.92L1527 744.354Z" fill="#E29B94"/>
<path fill-rule="evenodd" clip-rule="evenodd" d="M1554 824.935C1554 821.657 1551.33 819 1548.04 819H1395.96C1392.67 819 1390 821.657 1390 824.935V904.065C1390 907.343 1392.67 910 1395.96 910H1421.64C1425.64 910 1428.5 906.141 1428.05 902.187C1427.87 900.531 1427.77 898.847 1427.77 897.141C1427.77 872.559 1447.79 852.63 1472.5 852.63C1497.2 852.63 1517.22 872.559 1517.22 897.141C1517.22 898.847 1517.13 900.531 1516.94 902.187C1516.49 906.141 1519.36 910 1523.35 910H1548.04C1551.33 910 1554 907.343 1554 904.065V824.935Z" fill="#F07A6B"/>
<path fill-rule="evenodd" clip-rule="evenodd" d="M1534 753.565C1534 751.044 1531.98 749 1529.49 749H1414.51C1412.02 749 1410 751.044 1410 753.565V814.435C1410 816.956 1412.02 819 1414.51 819H1433.92C1436.95 819 1439.11 816.031 1438.77 812.99C1438.63 811.716 1438.56 810.421 1438.56 809.109C1438.56 790.199 1453.7 774.87 1472.38 774.87C1491.05 774.87 1506.19 790.199 1506.19 809.109C1506.19 810.421 1506.12 811.716 1505.98 812.99C1505.64 816.031 1507.81 819 1510.83 819H1529.49C1531.98 819 1534 816.956 1534 814.435V753.565Z" fill="#F9D56E"/>
<path d="M166.141 762.031C161.9 764.189 157.642 762.11 158.684 758.389L181.036 678.577L201.447 605.699C202.746 601.06 210.368 599.036 212.293 602.818L265.214 706.818C266.285 708.923 264.768 711.844 261.825 713.341L166.141 762.031Z" fill="#72A6E2"/>
<path d="M1224 159.5C1224 193.466 1196.47 221 1162.5 221C1128.53 221 1101 193.466 1101 159.5C1101 125.534 1128.53 98 1162.5 98C1196.47 98 1224 125.534 1224 159.5Z" fill="#F9D56E"/>
</g>
<defs>
<clipPath id="clip0">
<rect width="1600" height="900" fill="white"/>
</clipPath>
</defs>
</svg>
